<?xml version="1.0" standalone="no"?>
<!DOCTYPE svg PUBLIC "-//W3C//DTD SVG 20010904//EN"
 "http://www.w3.org/TR/2001/REC-SVG-20010904/DTD/svg10.dtd">
<svg version="1.0" xmlns="http://www.w3.org/2000/svg"
 width="400.000000pt" height="400.000000pt" viewBox="0 0 400.000000 400.000000"
 preserveAspectRatio="xMidYMid meet">
<metadata>
Created by potrace 1.11, written by Peter Selinger 2001-2013
</metadata>
<g transform="translate(0.000000,400.000000) scale(0.100000,-0.100000)"
fill="#000000" stroke="none">
<path d="M1280 3850 c-26 -26 -25 -40 5 -106 14 -30 25 -56 25 -58 0 -2 10
-25 22 -52 12 -27 23 -51 23 -54 1 -3 13 -31 28 -64 15 -32 27 -64 27 -71 0
-8 4 -15 8 -17 5 -1 21 -34 37 -73 15 -38 39 -95 52 -125 43 -95 59 -133 88
-200 32 -75 58 -134 91 -208 13 -29 24 -55 24 -58 0 -2 18 -43 40 -90 22 -47
40 -89 40 -93 0 -4 9 -25 19 -47 11 -22 23 -52 26 -67 8 -32 39 -29 -281 -29
-211 0 -222 -1 -247 -21 -28 -23 -39 -61 -26 -87 4 -8 31 -71 59 -140 29 -69
61 -145 72 -170 11 -25 23 -54 28 -65 4 -11 17 -40 28 -65 12 -25 33 -74 48
-110 15 -36 34 -81 42 -100 9 -19 16 -37 17 -40 3 -11 26 -63 50 -116 14 -30
25 -57 25 -59 0 -3 10 -27 21 -53 82 -181 119 -269 119 -281 0 -6 5 -11 10
-11 6 0 9 -3 9 -7 -1 -5 0 -11 1 -15 1 -5 3 -11 5 -15 3 -13 23 -61 47 -111
12 -26 23 -51 24 -57 3 -13 109 -257 134 -311 11 -23 20 -44 20 -47 0 -4 11
-30 24 -59 14 -29 39 -87 56 -128 18 -41 39 -91 48 -110 9 -19 17 -38 18 -42
1 -5 3 -11 4 -15 1 -5 2 -11 1 -15 0 -5 3 -8 8 -8 5 0 11 -9 14 -20 6 -24 49
-27 67 -4 11 12 14 209 14 994 1 538 4 982 9 986 4 4 92 8 196 9 171 0 191 2
210 19 12 11 21 27 21 36 0 18 -79 219 -106 272 -8 15 -12 28 -10 28 3 0 -5
21 -19 47 -13 26 -21 51 -19 55 3 4 1 8 -4 8 -5 0 -9 6 -9 13 -1 10 -53 138
-148 362 -4 11 -9 22 -10 25 -1 3 -7 18 -13 33 -7 16 -21 52 -33 80 -11 29
-31 77 -44 107 -22 51 -37 88 -40 100 0 3 -10 25 -21 50 -11 25 -29 67 -39 93
-18 47 -48 73 -95 82 -10 2 -37 12 -61 23 -24 11 -109 46 -189 77 -157 61
-168 66 -220 88 -105 45 -320 127 -334 127 -9 0 -25 -9 -36 -20z"/>
</g>
</svg>
